REM DIRINDEX 1\2,1\3,1\4
REM DIRNAME cjc105,folder01,folder02,folder03
TITLE ""
FILE "DISC3Track35.mp3" MP3
  TRACK 01 AUDIO
    TITLE "0:"
    INDEX 01 00:00:00
  TRACK 02 AUDIO
    TITLE "4:cjc105_5811"
    INDEX 01 00:00:17
  TRACK 03 AUDIO
    TITLE "0:"
    INDEX 01 00:02:43
  TRACK 04 AUDIO
    TITLE "2:cjc105_5812"
    INDEX 01 00:03:10
  TRACK 05 AUDIO
    TITLE "3:cjc105_5813"
    INDEX 01 00:04:36
  TRACK 06 AUDIO
    TITLE "0:"
    INDEX 01 00:05:26
  TRACK 07 AUDIO
    TITLE "2:cjc105_5814"
    INDEX 01 00:05:42
  TRACK 08 AUDIO
    TITLE "3:cjc105_5815"
    INDEX 01 00:07:02
  TRACK 09 AUDIO
    TITLE "0:"
    INDEX 01 00:08:38
  TRACK 10 AUDIO
    TITLE "2:cjc105_5816"
    INDEX 01 00:08:54
  TRACK 11 AUDIO
    TITLE "3:cjc105_5817"
    INDEX 01 00:10:25
  TRACK 12 AUDIO
    TITLE "0:"
    INDEX 01 00:11:72
  TRACK 13 AUDIO
    TITLE "2:cjc105_5818"
    INDEX 01 00:12:14
  TRACK 14 AUDIO
    TITLE "3:cjc105_5819"
    INDEX 01 00:13:57
  TRACK 15 AUDIO
    TITLE "0:"
    INDEX 01 00:14:72
  TRACK 16 AUDIO
    TITLE "2:cjc105_5820"
    INDEX 01 00:15:21
  TRACK 17 AUDIO
    TITLE "3:cjc105_5821"
    INDEX 01 00:16:26
  TRACK 18 AUDIO
    TITLE "0:"
    INDEX 01 00:17:47
  TRACK 19 AUDIO
    TITLE "2:cjc105_5822"
    INDEX 01 00:17:67
  TRACK 20 AUDIO
    TITLE "3:cjc105_5823"
    INDEX 01 00:19:26
  TRACK 21 AUDIO
    TITLE "0:"
    INDEX 01 00:20:51
  TRACK 22 AUDIO
    TITLE "2:cjc105_5824"
    INDEX 01 00:20:67
  TRACK 23 AUDIO
    TITLE "3:cjc105_5825"
    INDEX 01 00:21:66
  TRACK 24 AUDIO
    TITLE "0:"
    INDEX 01 00:23:20
  TRACK 25 AUDIO
    TITLE "2:cjc105_5826"
    INDEX 01 00:23:42
  TRACK 26 AUDIO
    TITLE "3:cjc105_5827"
    INDEX 01 00:24:53
  TRACK 27 AUDIO
    TITLE "0:"
    INDEX 01 00:25:56
  TRACK 28 AUDIO
    TITLE "2:cjc105_5828"
    INDEX 01 00:26:03
  TRACK 29 AUDIO
    TITLE "3:cjc105_5829"
    INDEX 01 00:27:43
  TRACK 30 AUDIO
    TITLE "0:"
    INDEX 01 00:29:23
  TRACK 31 AUDIO
    TITLE "2:cjc105_5830"
    INDEX 01 00:29:40
  TRACK 32 AUDIO
    TITLE "3:cjc105_5831"
    INDEX 01 00:30:61
  TRACK 33 AUDIO
    TITLE "0:"
    INDEX 01 00:32:05
  TRACK 34 AUDIO
    TITLE "2:cjc105_5832"
    INDEX 01 00:32:25
  TRACK 35 AUDIO
    TITLE "3:cjc105_5833"
    INDEX 01 00:33:60
  TRACK 36 AUDIO
    TITLE "0:"
    INDEX 01 00:35:23
  TRACK 37 AUDIO
    TITLE "2:cjc105_5834"
    INDEX 01 00:35:45
  TRACK 38 AUDIO
    TITLE "3:cjc105_5835"
    INDEX 01 00:37:07
  TRACK 39 AUDIO
    TITLE "0:"
    INDEX 01 00:38:26
  TRACK 40 AUDIO
    TITLE "2:cjc105_5836"
    INDEX 01 00:38:41
  TRACK 41 AUDIO
    TITLE "3:cjc105_5837"
    INDEX 01 00:40:11
  TRACK 42 AUDIO
    TITLE "0:"
    INDEX 01 00:41:32
  TRACK 43 AUDIO
    TITLE "2:cjc105_5838"
    INDEX 01 00:41:53
  TRACK 44 AUDIO
    TITLE "3:cjc105_5839"
    INDEX 01 00:42:61
  TRACK 45 AUDIO
    TITLE "0:"
    INDEX 01 00:43:74
  TRACK 46 AUDIO
    TITLE "2:cjc105_5840"
    INDEX 01 00:44:20
  TRACK 47 AUDIO
    TITLE "3:cjc105_5841"
    INDEX 01 00:45:69
  TRACK 48 AUDIO
    TITLE "0:"
    INDEX 01 00:47:38
  TRACK 49 AUDIO
    TITLE "2:cjc105_5842"
    INDEX 01 00:47:64
  TRACK 50 AUDIO
    TITLE "3:cjc105_5843"
    INDEX 01 00:49:25
  TRACK 51 AUDIO
    TITLE "0:"
    INDEX 01 00:50:68
  TRACK 52 AUDIO
    TITLE "2:cjc105_5844"
    INDEX 01 00:51:16
  TRACK 53 AUDIO
    TITLE "3:cjc105_5845"
    INDEX 01 00:52:41
  TRACK 54 AUDIO
    TITLE "0:"
    INDEX 01 00:53:74
  TRACK 55 AUDIO
    TITLE "2:cjc105_5846"
    INDEX 01 00:54:21
  TRACK 56 AUDIO
    TITLE "3:cjc105_5847"
    INDEX 01 00:56:06
  TRACK 57 AUDIO
    TITLE "0:"
    INDEX 01 00:57:50
  TRACK 58 AUDIO
    TITLE "2:cjc105_5848"
    INDEX 01 00:57:74
  TRACK 59 AUDIO
    TITLE "3:cjc105_5849"
    INDEX 01 00:59:32
  TRACK 60 AUDIO
    TITLE "0:"
    INDEX 01 01:01:03
  TRACK 61 AUDIO
    TITLE "2:cjc105_5850"
    INDEX 01 01:01:25
  TRACK 62 AUDIO
    TITLE "3:cjc105_5851"
    INDEX 01 01:02:38
  TRACK 63 AUDIO
    TITLE "0:"
    INDEX 01 01:03:45
  TRACK 64 AUDIO
    TITLE "2:cjc105_5852"
    INDEX 01 01:03:59
  TRACK 65 AUDIO
    TITLE "3:cjc105_5853"
    INDEX 01 01:05:01
  TRACK 66 AUDIO
    TITLE "0:"
    INDEX 01 01:06:18
  TRACK 67 AUDIO
    TITLE "2:cjc105_5854"
    INDEX 01 01:06:30
  TRACK 68 AUDIO
    TITLE "3:cjc105_5855"
    INDEX 01 01:07:66
  TRACK 69 AUDIO
    TITLE "0:"
    INDEX 01 01:08:74
  TRACK 70 AUDIO
    TITLE "2:cjc105_5856"
    INDEX 01 01:09:22
  TRACK 71 AUDIO
    TITLE "3:cjc105_5857"
    INDEX 01 01:10:26
  TRACK 72 AUDIO
    TITLE "0:"
    INDEX 01 01:11:23
  TRACK 73 AUDIO
    TITLE "2:cjc105_5858"
    INDEX 01 01:11:47
  TRACK 74 AUDIO
    TITLE "3:cjc105_5859"
    INDEX 01 01:12:58
  TRACK 75 AUDIO
    TITLE "0:"
    INDEX 01 01:13:65
  TRACK 76 AUDIO
    TITLE "2:cjc105_5860"
    INDEX 01 01:14:12
  TRACK 77 AUDIO
    TITLE "3:cjc105_5861"
    INDEX 01 01:15:37
  TRACK 78 AUDIO
    TITLE "0:"
    INDEX 01 01:16:50
  TRACK 79 AUDIO
    TITLE "2:cjc105_5862"
    INDEX 01 01:16:73
  TRACK 80 AUDIO
    TITLE "3:cjc105_5863"
    INDEX 01 01:18:37
  TRACK 81 AUDIO
    TITLE "0:"
    INDEX 01 01:19:50
  TRACK 82 AUDIO
    TITLE "2:cjc105_5864"
    INDEX 01 01:19:74
  TRACK 83 AUDIO
    TITLE "3:cjc105_5865"
    INDEX 01 01:21:23
  TRACK 84 AUDIO
    TITLE "0:"
    INDEX 01 01:22:29
  TRACK 85 AUDIO
    TITLE "2:cjc105_5866"
    INDEX 01 01:22:46
  TRACK 86 AUDIO
    TITLE "3:cjc105_5867"
    INDEX 01 01:23:71
  TRACK 87 AUDIO
    TITLE "0:"
    INDEX 01 01:25:08
  TRACK 88 AUDIO
    TITLE "2:cjc105_5868"
    INDEX 01 01:25:23
  TRACK 89 AUDIO
    TITLE "3:cjc105_5869"
    INDEX 01 01:26:46
  TRACK 90 AUDIO
    TITLE "0:"
    INDEX 01 01:27:65
  TRACK 91 AUDIO
    TITLE "2:cjc105_5870"
    INDEX 01 01:28:08
  TRACK 92 AUDIO
    TITLE "3:cjc105_5871"
    INDEX 01 01:29:52
  TRACK 93 AUDIO
    TITLE "0:"
    INDEX 01 01:31:08
  TRACK 94 AUDIO
    TITLE "2:cjc105_5872"
    INDEX 01 01:31:24
  TRACK 95 AUDIO
    TITLE "3:cjc105_5873"
    INDEX 01 01:32:60
  TRACK 96 AUDIO
    TITLE "0:"
    INDEX 01 01:34:20
  TRACK 97 AUDIO
    TITLE "2:cjc105_5874"
    INDEX 01 01:34:42
  TRACK 98 AUDIO
    TITLE "3:cjc105_5875"
    INDEX 01 01:35:65
  TRACK 99 AUDIO
    TITLE "0:"
    INDEX 01 01:36:72
  TRACK 100 AUDIO
    TITLE "2:cjc105_5876"
    INDEX 01 01:37:22
  TRACK 101 AUDIO
    TITLE "3:cjc105_5877"
    INDEX 01 01:38:51
  TRACK 102 AUDIO
    TITLE "0:"
    INDEX 01 01:39:66
  TRACK 103 AUDIO
    TITLE "2:cjc105_5878"
    INDEX 01 01:40:05
  TRACK 104 AUDIO
    TITLE "3:cjc105_5879"
    INDEX 01 01:41:14
  TRACK 105 AUDIO
    TITLE "0:"
    INDEX 01 01:42:45
  TRACK 106 AUDIO
    TITLE "2:cjc105_5880"
    INDEX 01 01:42:67
  TRACK 107 AUDIO
    TITLE "3:cjc105_5881"
    INDEX 01 01:44:19
  TRACK 108 AUDIO
    TITLE "0:"
    INDEX 01 01:45:30
  TRACK 109 AUDIO
    TITLE "2:cjc105_5882"
    INDEX 01 01:45:53
  TRACK 110 AUDIO
    TITLE "3:cjc105_5883"
    INDEX 01 01:46:68
  TRACK 111 AUDIO
    TITLE "0:"
    INDEX 01 01:47:62
  TRACK 112 AUDIO
    TITLE "2:cjc105_5884"
    INDEX 01 01:48:11
  TRACK 113 AUDIO
    TITLE "3:cjc105_5885"
    INDEX 01 01:49:26
  TRACK 114 AUDIO
    TITLE "0:"
    INDEX 01 01:50:41
  TRACK 115 AUDIO
    TITLE "2:cjc105_5886"
    INDEX 01 01:50:64
  TRACK 116 AUDIO
    TITLE "3:cjc105_5887"
    INDEX 01 01:52:04
  TRACK 117 AUDIO
    TITLE "0:"
    INDEX 01 01:53:41
  TRACK 118 AUDIO
    TITLE "2:cjc105_5888"
    INDEX 01 01:53:65
  TRACK 119 AUDIO
    TITLE "3:cjc105_5889"
    INDEX 01 01:55:15
  TRACK 120 AUDIO
    TITLE "0:"
    INDEX 01 01:56:36
  TRACK 121 AUDIO
    TITLE "2:cjc105_5890"
    INDEX 01 01:56:51
  TRACK 122 AUDIO
    TITLE "3:cjc105_5891"
    INDEX 01 01:58:09
  TRACK 123 AUDIO
    TITLE "0:"
    INDEX 01 01:59:30
  TRACK 124 AUDIO
    TITLE "2:cjc105_5892"
    INDEX 01 01:59:55
  TRACK 125 AUDIO
    TITLE "3:cjc105_5893"
    INDEX 01 02:01:09
  TRACK 126 AUDIO
    TITLE "0:"
    INDEX 01 02:02:44
  TRACK 127 AUDIO
    TITLE "2:cjc105_5894"
    INDEX 01 02:02:67
  TRACK 128 AUDIO
    TITLE "3:cjc105_5895"
    INDEX 01 02:04:12
  TRACK 129 AUDIO
    TITLE "0:"
    INDEX 01 02:05:54
  TRACK 130 AUDIO
    TITLE "2:cjc105_5896"
    INDEX 01 02:05:68
  TRACK 131 AUDIO
    TITLE "3:cjc105_5897"
    INDEX 01 02:06:71
  TRACK 132 AUDIO
    TITLE "0:"
    INDEX 01 02:08:09
  TRACK 133 AUDIO
    TITLE "2:cjc105_5898"
    INDEX 01 02:08:23
  TRACK 134 AUDIO
    TITLE "3:cjc105_5899"
    INDEX 01 02:09:44
  TRACK 135 AUDIO
    TITLE "0:"
    INDEX 01 02:11:15
  TRACK 136 AUDIO
    TITLE "2:cjc105_5900"
    INDEX 01 02:11:31
  TRACK 137 AUDIO
    TITLE "3:cjc105_5901"
    INDEX 01 02:13:12
  TRACK 138 AUDIO
    TITLE "0:"
    INDEX 01 02:14:35
  TRACK 139 AUDIO
    TITLE "2:cjc105_5902"
    INDEX 01 02:14:53
  TRACK 140 AUDIO
    TITLE "3:cjc105_5903"
    INDEX 01 02:16:15
  TRACK 141 AUDIO
    TITLE "0:"
    INDEX 01 02:17:42
  TRACK 142 AUDIO
    TITLE "2:cjc105_5904"
    INDEX 01 02:17:57
  TRACK 143 AUDIO
    TITLE "3:cjc105_5905"
    INDEX 01 02:19:66
  TRACK 144 AUDIO
    TITLE "0:"
    INDEX 01 02:21:41
  TRACK 145 AUDIO
    TITLE "2:cjc105_5906"
    INDEX 01 02:21:61
  TRACK 146 AUDIO
    TITLE "3:cjc105_5907"
    INDEX 01 02:22:62
  TRACK 147 AUDIO
    TITLE "0:"
    INDEX 01 02:24:00
  TRACK 148 AUDIO
    TITLE "2:cjc105_5908"
    INDEX 01 02:24:22
  TRACK 149 AUDIO
    TITLE "3:cjc105_5909"
    INDEX 01 02:25:31
  TRACK 150 AUDIO
    TITLE "0:"
    INDEX 01 02:26:50
  TRACK 151 AUDIO
    TITLE "2:cjc105_5910"
    INDEX 01 02:26:74
  TRACK 152 AUDIO
    TITLE "3:cjc105_5911"
    INDEX 01 02:28:49
  TRACK 153 AUDIO
    TITLE "0:"
    INDEX 01 02:30:29
  TRACK 154 AUDIO
    TITLE "2:cjc105_5912"
    INDEX 01 02:30:50
  TRACK 155 AUDIO
    TITLE "3:cjc105_5913"
    INDEX 01 02:31:73
  TRACK 156 AUDIO
    TITLE "0:"
    INDEX 01 02:33:05
  TRACK 157 AUDIO
    TITLE "2:cjc105_5914"
    INDEX 01 02:33:27
  TRACK 158 AUDIO
    TITLE "3:cjc105_5915"
    INDEX 01 02:34:64
  TRACK 159 AUDIO
    TITLE "0:"
    INDEX 01 02:36:23
  TRACK 160 AUDIO
    TITLE "2:cjc105_5916"
    INDEX 01 02:36:45
  TRACK 161 AUDIO
    TITLE "3:cjc105_5917"
    INDEX 01 02:39:02
  TRACK 162 AUDIO
    TITLE "0:"
    INDEX 01 02:41:56
  TRACK 163 AUDIO
    TITLE "2:cjc105_5918"
    INDEX 01 02:42:00
  TRACK 164 AUDIO
    TITLE "3:cjc105_5919"
    INDEX 01 02:43:12
  TRACK 165 AUDIO
    TITLE "0:"
    INDEX 01 02:44:17
  TRACK 166 AUDIO
    TITLE "2:cjc105_5920"
    INDEX 01 02:44:35
  TRACK 167 AUDIO
    TITLE "3:cjc105_5921"
    INDEX 01 02:45:28
  TRACK 168 AUDIO
    TITLE "0:"
    INDEX 01 02:46:53
  TRACK 169 AUDIO
    TITLE "2:cjc105_5922"
    INDEX 01 02:46:69
  TRACK 170 AUDIO
    TITLE "3:cjc105_5923"
    INDEX 01 02:48:28
  TRACK 171 AUDIO
    TITLE "0:"
    INDEX 01 02:49:26
  TRACK 172 AUDIO
    TITLE "2:cjc105_5924"
    INDEX 01 02:49:45
  TRACK 173 AUDIO
    TITLE "3:cjc105_5925"
    INDEX 01 02:51:09
  TRACK 174 AUDIO
    TITLE "0:"
    INDEX 01 02:52:32
  TRACK 175 AUDIO
    TITLE "2:cjc105_5926"
    INDEX 01 02:52:56
  TRACK 176 AUDIO
    TITLE "3:cjc105_5927"
    INDEX 01 02:54:09
  TRACK 177 AUDIO
    TITLE "0:"
    INDEX 01 02:55:28
  TRACK 178 AUDIO
    TITLE "2:cjc105_5928"
    INDEX 01 02:55:50
  TRACK 179 AUDIO
    TITLE "3:cjc105_5929"
    INDEX 01 02:57:21
  TRACK 180 AUDIO
    TITLE "0:"
    INDEX 01 02:58:54
  TRACK 181 AUDIO
    TITLE "2:cjc105_5930"
    INDEX 01 02:58:70
  TRACK 182 AUDIO
    TITLE "3:cjc105_5931"
    INDEX 01 03:00:22
  TRACK 183 AUDIO
    TITLE "0:"
    INDEX 01 03:01:35
  TRACK 184 AUDIO
    TITLE "2:cjc105_5932"
    INDEX 01 03:01:51
  TRACK 185 AUDIO
    TITLE "3:cjc105_5933"
    INDEX 01 03:02:54
  TRACK 186 AUDIO
    TITLE "0:"
    INDEX 01 03:04:02
  TRACK 187 AUDIO
    TITLE "2:cjc105_5934"
    INDEX 01 03:04:24
  TRACK 188 AUDIO
    TITLE "3:cjc105_5935"
    INDEX 01 03:05:72
  TRACK 189 AUDIO
    TITLE "0:"
    INDEX 01 03:07:39
  TRACK 190 AUDIO
    TITLE "2:cjc105_5936"
    INDEX 01 03:07:61
  TRACK 191 AUDIO
    TITLE "3:cjc105_5937"
    INDEX 01 03:09:21
  TRACK 192 AUDIO
    TITLE "0:"
    INDEX 01 03:10:48
  TRACK 193 AUDIO
    TITLE "2:cjc105_5938"
    INDEX 01 03:10:67
  TRACK 194 AUDIO
    TITLE "3:cjc105_5939"
    INDEX 01 03:12:50
  TRACK 195 AUDIO
    TITLE "0:"
    INDEX 01 03:13:62
  TRACK 196 AUDIO
    TITLE "2:cjc105_5940"
    INDEX 01 03:14:08
  TRACK 197 AUDIO
    TITLE "3:cjc105_5941"
    INDEX 01 03:15:45
  TRACK 198 AUDIO
    TITLE "0:"
    INDEX 01 03:17:18
  TRACK 199 AUDIO
    TITLE "2:cjc105_5942"
    INDEX 01 03:17:40
  TRACK 200 AUDIO
    TITLE "3:cjc105_5943"
    INDEX 01 03:18:57
  TRACK 201 AUDIO
    TITLE "0:"
    INDEX 01 03:19:74
  TRACK 202 AUDIO
    TITLE "2:cjc105_5944"
    INDEX 01 03:20:24
  TRACK 203 AUDIO
    TITLE "3:cjc105_5945"
    INDEX 01 03:21:47
  TRACK 204 AUDIO
    TITLE "0:"
    INDEX 01 03:23:11
  TRACK 205 AUDIO
    TITLE "2:cjc105_5946"
    INDEX 01 03:23:35
  TRACK 206 AUDIO
    TITLE "3:cjc105_5947"
    INDEX 01 03:25:33
  TRACK 207 AUDIO
    TITLE "0:"
    INDEX 01 03:26:68
  TRACK 208 AUDIO
    TITLE "2:cjc105_5948"
    INDEX 01 03:27:17
  TRACK 209 AUDIO
    TITLE "3:cjc105_5949"
    INDEX 01 03:28:69
  TRACK 210 AUDIO
    TITLE "0:"
    INDEX 01 03:30:50
  TRACK 211 AUDIO
    TITLE "2:cjc105_5950"
    INDEX 01 03:30:68
  TRACK 212 AUDIO
    TITLE "3:cjc105_5951"
    INDEX 01 03:32:47
  TRACK 213 AUDIO
    TITLE "0:"
    INDEX 01 03:33:74
  TRACK 214 AUDIO
    TITLE "2:cjc105_5952"
    INDEX 01 03:34:19
  TRACK 215 AUDIO
    TITLE "3:cjc105_5953"
    INDEX 01 03:35:30
  TRACK 216 AUDIO
    TITLE "0:"
    INDEX 01 03:36:45
  TRACK 217 AUDIO
    TITLE "2:cjc105_5954"
    INDEX 01 03:36:67
  TRACK 218 AUDIO
    TITLE "3:cjc105_5955"
    INDEX 01 03:38:44
  TRACK 219 AUDIO
    TITLE "0:"
    INDEX 01 03:40:10
  TRACK 220 AUDIO
    TITLE "2:cjc105_5956"
    INDEX 01 03:40:31
  TRACK 221 AUDIO
    TITLE "3:cjc105_5957"
    INDEX 01 03:41:44
  TRACK 222 AUDIO
    TITLE "0:"
    INDEX 01 03:42:59
  TRACK 223 AUDIO
    TITLE "2:cjc105_5958"
    INDEX 01 03:43:02
  TRACK 224 AUDIO
    TITLE "3:cjc105_5959"
    INDEX 01 03:44:48
  TRACK 225 AUDIO
    TITLE "0:"
    INDEX 01 03:45:66
  TRACK 226 AUDIO
    TITLE "2:cjc105_5960"
    INDEX 01 03:46:08
  TRACK 227 AUDIO
    TITLE "3:cjc105_5961"
    INDEX 01 03:47:61
  TRACK 228 AUDIO
    TITLE "0:"
    INDEX 01 03:49:14
  TRACK 229 AUDIO
    TITLE "2:cjc105_5962"
    INDEX 01 03:49:36
  TRACK 230 AUDIO
    TITLE "3:cjc105_5963"
    INDEX 01 03:51:02
  TRACK 231 AUDIO
    TITLE "0:"
    INDEX 01 03:52:05
  TRACK 232 AUDIO
    TITLE "2:cjc105_5964"
    INDEX 01 03:52:30
  TRACK 233 AUDIO
    TITLE "3:cjc105_5965"
    INDEX 01 03:53:61
  TRACK 234 AUDIO
    TITLE "0:"
    INDEX 01 03:55:03
  TRACK 235 AUDIO
    TITLE "2:cjc105_5966"
    INDEX 01 03:55:23
  TRACK 236 AUDIO
    TITLE "3:cjc105_5967"
    INDEX 01 03:57:04
  TRACK 237 AUDIO
    TITLE "0:"
    INDEX 01 03:58:54
  TRACK 238 AUDIO
    TITLE "2:cjc105_5968"
    INDEX 01 03:59:01
  TRACK 239 AUDIO
    TITLE "3:cjc105_5969"
    INDEX 01 04:00:10
  TRACK 240 AUDIO
    TITLE "0:"
    INDEX 01 04:01:39
  TRACK 241 AUDIO
    TITLE "2:cjc105_5970"
    INDEX 01 04:01:65
  TRACK 242 AUDIO
    TITLE "3:cjc105_5971"
    INDEX 01 04:03:50
  TRACK 243 AUDIO
    TITLE "0:"
    INDEX 01 04:05:02
  TRACK 244 AUDIO
    TITLE "2:cjc105_5972"
    INDEX 01 04:05:23
  TRACK 245 AUDIO
    TITLE "3:cjc105_5973"
    INDEX 01 04:07:08
  TRACK 246 AUDIO
    TITLE "0:"
    INDEX 01 04:08:63
  TRACK 247 AUDIO
    TITLE "2:cjc105_5974"
    INDEX 01 04:09:11
  TRACK 248 AUDIO
    TITLE "3:cjc105_5975"
    INDEX 01 04:10:64
  TRACK 249 AUDIO
    TITLE "0:"
    INDEX 01 04:12:33
  TRACK 250 AUDIO
    TITLE "2:cjc105_5976"
    INDEX 01 04:12:53
  TRACK 251 AUDIO
    TITLE "3:cjc105_5977"
    INDEX 01 04:13:70
  TRACK 252 AUDIO
    TITLE "0:"
    INDEX 01 04:14:69
  TRACK 253 AUDIO
    TITLE "2:cjc105_5978"
    INDEX 01 04:15:16
  TRACK 254 AUDIO
    TITLE "3:cjc105_5979"
    INDEX 01 04:16:15
  TRACK 255 AUDIO
    TITLE "0:"
    INDEX 01 04:17:56
